# xmcd CD database file
#
# Track frame offsets:
#	150
#	14242
#	29362
#	43090
#	60632
#	75890
#	101537
#	114640
#	132862
#	148335
#
# Disc length: 2209 seconds
#
# Revision: 0
# Processed by: cddbd v1.5.1PL0 Copyright (c) Steve Scherf et al.
# Submitted via: CDex 1.51
#
DISCID=88089f0a
DTITLE=Various Artist - Hot Moo Country Summer '96
DYEAR=1996
DGENRE=Country
TTITLE0=High Lonesome Sound (Vince Gill)
TTITLE1=Carried Away (George Strait)
TTITLE2=Honky Tonkin's What I do Best (Marty Stuart)
TTITLE3=The Road You Leave Behind (David Lee Murphy)
TTITLE4=Don't Get Me Started (Rhett Atkins)
TTITLE5=Worlds Apart (Vince Gill)
TTITLE6=Blue Clear Sky (George Strait)
TTITLE7=YouCan't Stop Love (Marty Stuart)
TTITLE8=Every Time I Get Around You (David Lee Murphy)
TTITLE9=Love You Back (Rhett Atkins)
EXTD=YEAR: 1996
EXTT0=
EXTT1=
EXTT2=
EXTT3=
EXTT4=
EXTT5=
EXTT6=
EXTT7=
EXTT8=
EXTT9=
PLAYORDER=
